<?xml version="1.0" encoding="utf-8"?>
<svg version="1.1" id="Layer_1" x="0px" y="0px" width="100%" viewBox="0 0 1892 2391" enable-background="new 0 0 1892 2391" xmlns="http://www.w3.org/2000/svg">
  <path fill="#3157D3" opacity="1.000000" stroke="none" d=" M1.999982,2260.000000 C2.000000,1551.271484 2.000000,842.543030 2.812770,132.891556 C4.281759,130.943771 5.644245,129.790833 5.485152,128.913956 C3.860460,119.958961 8.999516,112.361191 10.732394,104.157936 C13.963609,88.861710 21.073507,74.866295 29.492628,61.499241 C39.908672,44.961666 51.636169,29.852680 68.720314,19.788513 C77.038048,14.888589 83.886520,7.184327 94.308189,6.034484 C95.011940,5.956838 95.442421,3.402468 96.000000,1.999999 C661.395203,2.000000 1226.790405,2.000000 1793.271362,2.566955 C1794.904785,2.755939 1795.452393,2.377969 1796.000000,1.999999 C1798.133911,2.000000 1800.267700,2.000000 1802.435791,2.440582 C1803.898926,8.137690 1809.137085,6.147362 1812.293457,8.067402 C1823.995361,15.185610 1836.427124,21.364870 1845.838379,31.647503 C1852.636963,39.075432 1859.724243,46.439903 1865.251831,54.780987 C1872.693604,66.010689 1880.205811,77.397339 1883.874268,90.696327 C1885.757812,97.524422 1887.806396,104.317513 1890.133057,111.003685 C1890.582275,112.294670 1892.668823,113.015892 1894.000000,113.999985 C1894.000000,118.083656 1894.000000,122.167320 1893.577393,127.001526 C1893.436401,128.501358 1893.718262,129.250671 1894.000000,129.999985 C1894.000000,846.061829 1894.000000,1562.123657 1893.247803,2278.658203 C1891.638062,2280.079346 1890.141235,2280.954346 1890.022949,2281.987061 C1888.910889,2291.682129 1884.871948,2300.288574 1881.364502,2309.256592 C1878.479126,2316.634277 1874.110229,2322.853027 1870.653687,2329.701416 C1863.298584,2344.273682 1853.838623,2356.775879 1840.452393,2366.212402 C1835.433838,2369.750244 1830.174438,2373.024414 1825.546997,2377.022705 C1815.632080,2385.590088 1803.949585,2389.415771 1791.292114,2391.217041 C1790.087036,2391.388184 1789.092285,2393.037109 1788.000000,2394.000000 C1229.271484,2394.000000 670.543030,2394.000000 111.038574,2393.229492 C109.393463,2392.028320 108.560005,2391.329346 107.649696,2391.208496 C95.857559,2389.641846 84.883018,2386.190918 75.435204,2378.531250 C69.348557,2373.596436 63.116859,2368.777100 56.567898,2364.489746 C44.098026,2356.326660 35.911640,2344.051514 29.084873,2331.829102 C21.646807,2318.512451 13.111986,2305.158691 10.955305,2289.200439 C9.793853,2280.606201 4.042703,2272.908447 5.440172,2263.576904 C5.589631,2262.578613 3.207625,2261.201416 1.999982,2260.000000 M859.468506,2273.155273 C916.461731,2273.043457 973.454895,2272.937256 1030.447998,2272.770752 C1031.350708,2272.768066 1032.251465,2272.029297 1034.399780,2271.087646 C1034.399780,2267.290771 1034.399780,2263.032227 1034.399780,2258.773438 C1034.399902,2182.774902 1034.398926,2106.776123 1034.403931,2030.777466 C1034.404175,2027.778198 1034.229004,2024.754395 1034.541016,2021.784668 C1035.183838,2015.663208 1039.415527,2011.469727 1045.539185,2010.864136 C1048.512573,2010.570068 1051.533569,2010.733398 1054.533081,2010.733154 C1134.531616,2010.728271 1214.530273,2010.741455 1294.528809,2010.693726 C1298.710815,2010.691162 1302.892700,2010.179565 1306.754883,2009.925903 C1309.239624,1997.748657 1308.687500,1838.831909 1305.951904,1830.369507 C1302.463745,1830.369507 1298.552246,1830.369385 1294.640625,1830.369507 C1258.974609,1830.369629 1223.308594,1830.369751 1187.642578,1830.369873 C1141.976685,1830.369873 1096.310913,1830.405273 1050.645020,1830.348633 C1036.352783,1830.330933 1033.071655,1825.885010 1037.275269,1812.666260 C1045.030518,1788.278442 1052.846191,1763.909668 1060.549683,1739.505737 C1065.848633,1722.719116 1070.953613,1705.871582 1076.234863,1689.079468 C1079.826660,1677.659058 1083.665771,1666.316162 1087.232178,1654.888062 C1094.857788,1630.452637 1102.348267,1605.975220 1109.958374,1581.534912 C1112.587036,1573.092529 1118.014038,1566.865234 1126.217896,1563.667114 C1133.626221,1560.779297 1141.519653,1559.119873 1148.887817,1556.147217 C1169.503052,1547.829712 1189.962280,1539.124390 1210.471313,1530.544312 C1215.091675,1528.611328 1219.624634,1526.631592 1224.700195,1529.215942 C1237.441162,1535.703247 1250.280884,1541.999146 1262.964966,1548.595093 C1272.384521,1553.493408 1281.521973,1558.936523 1290.961548,1563.793823 C1309.846680,1573.511841 1328.887207,1582.927368 1347.798096,1592.596069 C1362.864502,1600.299194 1377.825806,1608.207642 1392.847656,1615.998047 C1410.238525,1625.016846 1427.693237,1633.914185 1444.999512,1643.092163 C1448.152222,1644.764160 1450.762939,1644.611328 1453.316162,1642.706299 C1455.703979,1640.924561 1457.856567,1638.799683 1459.972534,1636.685547 C1498.409424,1598.284912 1536.825317,1559.863403 1575.243774,1521.444336 C1576.657715,1520.030518 1578.044312,1518.589233 1579.454102,1517.171143 C1582.950806,1513.654297 1583.443237,1509.898804 1581.096924,1505.395630 C1572.954224,1489.768188 1565.100342,1473.990112 1556.948853,1458.367432 C1548.963379,1443.062744 1540.658081,1427.924927 1532.658325,1412.627563 C1523.578247,1395.264282 1514.726685,1377.781860 1505.692993,1360.394287 C1494.988037,1339.789917 1484.371460,1319.135742 1473.313477,1298.721436 C1470.597290,1293.706909 1470.527100,1289.727905 1473.120361,1284.764038 C1480.199219,1271.214233 1487.471313,1257.706543 1493.502808,1243.681519 C1502.825806,1222.002197 1511.005249,1199.833740 1520.034912,1178.024048 C1523.584106,1169.451660 1529.718262,1163.314819 1539.103027,1160.473755 C1556.273193,1155.276001 1573.279541,1149.538574 1590.364014,1144.056885 C1613.460327,1136.646240 1636.561279,1129.249512 1659.669067,1121.874146 C1688.814819,1112.571533 1717.990234,1103.360962 1747.105347,1093.963623 C1754.167480,1091.684326 1755.640503,1088.815552 1755.071045,1081.210938 C1754.698975,1076.242065 1754.307983,1071.258789 1754.296997,1066.281128 C1754.226685,1034.281982 1754.339600,1002.282043 1754.191284,970.283264 C1754.160645,963.661682 1752.988281,957.049805 1752.860107,950.423401 C1752.591431,936.523071 1752.527344,922.614502 1752.671021,908.712402 C1752.727295,903.264709 1751.065796,900.030273 1745.324341,898.765442 C1738.529663,897.268494 1731.887939,895.042786 1725.226318,892.982910 C1696.931274,884.233887 1668.654053,875.427185 1640.369019,866.645691 C1609.899048,857.185852 1579.519531,847.417725 1548.913818,838.419739 C1535.676636,834.528015 1528.626953,826.230835 1524.593384,813.433838 C1518.203857,793.161987 1511.417847,772.958252 1503.534424,753.231262 C1496.632080,735.959106 1488.293579,719.230286 1479.969116,702.571350 C1476.415771,695.460510 1476.834717,689.360779 1480.580688,682.788208 C1484.524780,675.867798 1488.258667,668.821411 1491.892334,661.731567 C1503.564453,638.957642 1515.002319,616.062622 1526.801392,593.355042 C1542.119629,563.874878 1558.229370,534.793152 1572.974487,505.032623 C1582.528198,485.749817 1580.461426,488.629059 1568.149658,476.129700 C1562.092896,469.980652 1561.260864,470.061005 1555.207520,475.939301 C1533.463745,497.054230 1511.561646,518.012268 1490.115479,539.426270 C1381.377075,648.001282 1272.723511,756.661438 1164.152710,865.403992 C1149.563354,880.016479 1150.286133,874.343445 1159.356323,894.588562 C1165.329102,907.919739 1171.510254,921.177246 1176.905273,934.743347 C1186.408691,958.640808 1187.608521,984.087952 1188.279907,1009.261230 C1189.096313,1039.869629 1181.931152,1069.244263 1170.550293,1097.694092 C1162.591309,1117.589600 1152.493286,1136.420044 1138.673462,1152.466553 C1123.527100,1170.053345 1106.120605,1185.703857 1089.538696,1202.035278 C1086.246460,1205.277710 1082.503418,1208.266968 1078.497070,1210.544189 C1061.501953,1220.203491 1044.821289,1230.188110 1026.088013,1236.785522 C983.603577,1251.747437 940.621765,1255.743530 896.594727,1246.180420 C884.953186,1243.651733 873.570312,1239.876221 862.145203,1236.420288 C843.813354,1230.875366 827.304504,1221.483887 811.450195,1211.058838 C794.980774,1200.229248 781.114807,1186.291992 767.221375,1172.386230 C754.181396,1159.334351 743.795776,1144.446899 734.414551,1128.713379 C714.599915,1095.481812 704.342773,1059.274414 701.745422,1020.929016 C699.652710,990.033875 704.145691,959.773376 714.560913,930.642517 C720.368835,914.398193 726.927002,898.369690 736.972229,884.015930 C742.103333,876.684021 741.239441,874.114685 733.246277,866.067200 C650.110779,782.366638 567.005859,698.635498 483.800812,615.004028 C442.894470,573.888000 401.796539,532.962585 360.784882,491.951324 C353.478210,484.644714 346.213165,477.295807 338.849243,470.047333 C331.636261,462.947571 330.359375,462.918427 323.433319,469.680298 C317.709595,475.268372 312.043671,480.919098 306.471008,486.657501 C300.392365,492.916901 300.277649,494.368378 304.395905,502.407410 C311.808228,516.876587 319.210938,531.350647 326.615784,545.823669 C329.339264,551.146729 331.983795,556.511719 334.791107,561.790161 C344.930969,580.855469 355.295776,599.803223 365.256439,618.961365 C378.749908,644.914551 391.538818,671.244019 405.516998,696.929321 C409.885437,704.956421 409.909546,711.295959 406.302277,719.334595 C397.058502,739.933899 388.245819,760.748596 380.016785,781.773071 C374.934418,794.758057 370.730957,808.147522 367.073364,821.610901 C363.981476,832.992188 356.681091,838.505493 345.914948,841.712524 C318.523315,849.871826 291.269165,858.498779 264.018494,867.123352 C241.234238,874.334412 218.532379,881.805908 195.794724,889.164246 C176.814835,895.306458 157.819565,901.401855 138.862686,907.614319 C127.647423,911.289734 127.638863,911.373962 127.634026,922.738953 C127.617142,962.404907 127.550560,1002.071167 127.700096,1041.736572 C127.726311,1048.688599 128.965271,1055.629028 129.175522,1062.588989 C129.444183,1071.483032 128.973022,1080.401245 129.300171,1089.291260 C129.736374,1101.145264 130.040268,1100.785278 140.959396,1104.061279 C163.225479,1110.741821 185.364365,1117.845947 207.558228,1124.767456 C218.650177,1128.226440 229.743073,1131.682617 240.843536,1135.114136 C259.903442,1141.006104 278.963806,1146.896484 298.034821,1152.752197 C316.785614,1158.509644 335.428497,1164.679321 354.370544,1169.722168 C361.518799,1171.625244 367.750885,1174.154053 371.769714,1180.143799 C375.411987,1185.572388 378.420929,1191.533325 380.951294,1197.576904 C385.571960,1208.613403 389.160034,1220.095825 394.042145,1231.005859 C400.695648,1245.874390 407.961792,1260.481323 415.372131,1274.992676 C418.246643,1280.621704 418.232819,1285.591187 415.426208,1291.097046 C405.624542,1310.325195 396.132507,1329.711792 386.259216,1348.902588 C379.427399,1362.181641 372.228638,1375.274048 365.068359,1388.381470 C359.353851,1398.842285 353.166565,1409.053345 347.699768,1419.639038 C340.386597,1433.800049 333.659149,1448.262085 326.509735,1462.509277 C318.920593,1477.632935 311.249512,1492.718384 303.363831,1507.688721 C300.757172,1512.637085 301.499603,1516.403198 305.357117,1520.196411 C318.151703,1532.777710 330.781860,1545.526245 343.573212,1558.111084 C352.787201,1567.176270 362.290863,1575.949585 371.418488,1585.099365 C379.632599,1593.333496 387.373016,1602.040039 395.587006,1610.274048 C400.746246,1615.445679 406.496796,1620.021851 411.794525,1625.062256 C417.563995,1630.551392 422.861176,1636.567749 428.900146,1641.726807 C431.063080,1643.574707 435.125580,1644.863281 437.730530,1644.174316 C442.772614,1642.840576 447.492737,1640.105591 452.172668,1637.623901 C462.422821,1632.188354 472.490875,1626.407471 482.770569,1621.030029 C493.670013,1615.328369 504.769958,1610.010986 515.707214,1604.380005 C530.453064,1596.787964 545.122009,1589.046509 559.833252,1581.387085 C577.501587,1572.188110 595.191406,1563.030518 612.850342,1553.813599 C629.639038,1545.050659 646.411804,1536.257202 663.165039,1527.426758 C667.962097,1524.898193 672.688232,1524.706299 677.450745,1527.373657 C701.376343,1540.773560 726.893921,1550.397949 752.845947,1558.929199 C762.865479,1562.223145 768.644226,1568.766602 771.730042,1578.806519 C781.802429,1611.578003 792.317932,1644.213135 802.637634,1676.908691 C809.939087,1700.041626 817.080139,1723.226074 824.517578,1746.315063 C830.010132,1763.365967 836.114319,1780.222778 841.436951,1797.324341 C843.586548,1804.231079 845.112427,1811.512573 845.575439,1818.710205 C845.997498,1825.271362 840.984985,1829.698608 834.375183,1830.263428 C831.395325,1830.518066 828.379150,1830.366577 825.379456,1830.366699 C745.047546,1830.370483 664.715637,1830.360596 584.383728,1830.396729 C580.164185,1830.398682 575.944702,1830.786011 572.044373,1830.978149 C569.697571,1840.802856 569.791260,2001.185059 572.293030,2010.728760 C576.120422,2010.728760 580.343201,2010.728760 584.566040,2010.728760 C664.564575,2010.729004 744.564331,2010.961060 824.560791,2010.552979 C842.708435,2010.460449 846.091125,2014.499268 846.006470,2031.613281 C845.630859,2107.610107 845.831055,2183.609619 845.880920,2259.608398 C845.883606,2263.778564 846.408569,2267.948242 846.722717,2272.595947 C851.050476,2272.817871 854.321106,2272.985352 859.468506,2273.155273 M648.306702,181.352478 C637.282471,184.800323 627.420227,191.514206 615.487732,192.508408 C607.066040,193.210114 599.485107,196.456116 592.645935,201.582672 C590.327148,203.320816 587.339050,204.209824 584.590881,205.324265 C570.756042,210.934662 556.082031,215.070007 543.265625,222.440948 C528.564209,230.896027 512.684692,236.587982 497.952209,244.696411 C485.227661,251.699707 470.628662,255.590179 460.398834,266.877716 C459.341248,268.044678 457.614502,268.631226 456.153687,269.402740 C436.277008,279.900574 416.245209,290.144318 399.001556,304.887604 C397.995270,305.748016 396.778473,306.357147 395.701385,307.140625 C383.345612,316.127838 370.890930,324.984344 358.692261,334.180267 C352.401093,338.922791 352.448792,344.435577 358.168549,350.124481 C382.264130,374.090118 406.332184,398.083557 430.495819,421.980377 C433.461792,424.913574 436.942383,427.326385 439.913483,429.758484 C447.515442,424.590790 454.043793,420.055023 460.671753,415.669861 C470.908447,408.897125 482.106293,403.552094 490.696045,394.351440 C492.836090,392.059204 496.423828,391.116852 499.349213,389.559784 C504.576904,386.777283 509.915222,384.181885 515.004517,381.166168 C519.824158,378.310272 524.262695,374.809235 529.093811,371.975464 C533.338379,369.485840 537.952515,367.636139 542.302063,365.313995 C555.648987,358.188507 567.450317,348.096161 582.833679,344.842316 C586.256226,344.118378 589.272278,341.537354 592.516113,339.891632 C601.969482,335.095703 611.251709,329.897949 620.961182,325.688538 C631.534546,321.104614 642.462463,317.314484 653.324463,313.425903 C671.125732,307.053009 688.946716,300.724731 706.877014,294.729401 C711.516663,293.178070 716.730957,293.398193 721.443665,292.002441 C734.763855,288.057434 747.759949,282.796631 761.269409,279.782684 C772.159607,277.353088 783.355774,276.663055 794.397461,273.950134 C810.674316,269.950989 827.605835,268.466614 844.323425,266.448059 C867.400574,263.661560 890.474304,260.657867 913.822815,261.125702 C925.722412,261.364136 937.631653,261.172180 949.535889,261.085175 C951.510010,261.070770 953.473633,260.500641 955.454468,260.352203 C959.757263,260.029846 964.244385,258.910553 968.344971,259.710999 C986.019531,263.161163 1004.015320,260.481506 1021.866028,263.830139 C1039.628540,267.162201 1058.375366,264.405579 1075.908081,270.831390 C1076.505737,271.050385 1077.229614,270.940430 1077.895142,270.956177 C1099.027100,271.456909 1119.530273,275.777191 1139.475098,282.319427 C1148.441284,285.260468 1158.561523,284.900970 1166.409180,291.417480 C1167.700806,292.489990 1170.268188,291.985809 1172.232300,292.296997 C1176.152710,292.918121 1180.106323,293.412323 1183.969971,294.293396 C1192.997437,296.352081 1201.988281,298.574402 1210.972412,300.816589 C1212.563599,301.213684 1214.058594,302.008698 1215.584839,302.651123 C1231.715820,309.440552 1247.675659,316.682739 1264.039673,322.853363 C1273.043945,326.248749 1282.071045,329.145203 1290.744507,333.653290 C1310.046509,343.685852 1330.619629,351.122986 1349.275635,362.618225 C1362.453125,370.737793 1376.463135,377.498413 1389.738403,385.470367 C1399.126099,391.107880 1408.007935,397.614868 1416.929810,403.993561 C1426.375244,410.746613 1435.861206,417.488373 1444.845459,424.827667 C1453.038208,431.520416 1459.196777,432.108765 1466.740479,424.638336 C1491.364014,400.254089 1515.845825,375.725769 1540.247803,351.119537 C1546.144653,345.173279 1546.272339,340.427368 1539.913818,334.925995 C1531.893555,327.986847 1523.217773,321.771759 1514.572144,315.598175 C1505.947998,309.439972 1496.976807,303.769928 1488.226074,297.786011 C1483.579590,294.608673 1479.427002,290.513550 1474.448608,288.052490 C1456.523315,279.191406 1439.823120,268.471588 1423.915039,256.433807 C1422.608154,255.444855 1421.150635,253.827164 1419.796875,253.860870 C1410.399780,254.094788 1403.897095,247.998337 1396.455688,243.829437 C1386.650146,238.335983 1376.790771,232.892715 1366.666016,228.028412 C1357.102417,223.433762 1347.101807,219.758530 1337.412109,215.413956 C1328.958984,211.623840 1320.854004,207.003983 1312.259888,203.596588 C1303.480347,200.115723 1293.289673,200.204514 1285.971558,192.973236 C1285.377075,192.385803 1284.056763,192.568634 1283.096069,192.310547 C1272.963867,189.588486 1261.952148,189.535965 1253.297729,182.274704 C1252.140137,181.303528 1250.187622,181.237000 1248.578613,180.854691 C1243.087646,179.550140 1237.496216,178.588013 1232.105225,176.958893 C1217.259521,172.472626 1202.671997,166.998779 1187.641724,163.299622 C1176.460938,160.547882 1164.905884,159.329697 1153.547607,156.934021 C1131.630737,152.311325 1110.028931,145.908157 1087.202759,145.256516 C1071.760620,144.815643 1056.457397,140.603134 1041.014160,138.715225 C1030.489136,137.428558 1019.833008,137.180496 1009.228577,136.592346 C1003.992798,136.301956 998.696655,136.676987 993.507019,136.071884 C984.327576,135.001572 975.356201,132.974823 965.893188,134.583344 C959.748413,135.627823 953.267578,134.597244 946.939758,134.681122 C931.049255,134.891769 915.150269,134.953217 899.274048,135.571869 C889.007996,135.971924 878.774658,137.233368 868.529236,138.137161 C856.073486,139.235901 843.203064,136.406403 831.218567,142.087631 C830.358459,142.495377 829.263794,142.399658 828.281738,142.559906 C813.598511,144.955841 798.668030,144.761719 783.982666,148.004898 C769.221069,151.264938 754.810730,156.921570 739.300110,156.396561 C738.033325,156.353683 736.741821,157.047241 735.461487,157.397369 C720.751282,161.419998 706.093506,165.650879 691.306335,169.367111 C684.962891,170.961304 677.332458,169.784119 672.108032,172.910019 C664.957520,177.188370 657.469055,178.880219 648.306702,181.352478 M636.192444,441.700897 C632.987793,442.545563 629.089722,442.511230 626.703491,444.393433 C618.264893,451.049805 608.870605,455.671112 599.271484,460.364746 C586.498779,466.610229 574.383911,474.271484 562.284851,481.803894 C550.708191,489.011017 539.352356,496.603363 528.211548,504.468475 C521.600281,509.135864 521.602295,512.045837 526.861389,518.327698 C528.353760,520.110291 530.103943,521.678711 531.753174,523.328064 C548.709534,540.285217 565.751099,557.158325 582.580688,574.240295 C587.938843,579.678711 592.637817,585.760071 597.812622,591.387085 C605.987122,600.276123 611.288086,600.297913 621.139343,594.177185 C633.830383,586.291992 646.715637,578.457581 660.304932,572.355286 C673.326294,566.508118 685.057251,558.449280 698.156311,552.605042 C710.799377,546.964172 723.327515,540.928894 736.360657,536.204407 C748.211426,531.908569 760.310242,528.239685 772.438782,524.782104 C788.057129,520.329529 803.076477,513.558655 819.659363,512.711121 C825.600891,512.407410 832.096191,512.527771 837.305237,510.170746 C856.251282,501.597900 877.378601,505.865051 896.562866,499.252869 C898.305176,498.652374 900.501770,499.458740 902.486755,499.451172 C905.110474,499.441162 907.739868,499.355286 910.355835,499.156433 C917.965515,498.577942 925.574829,497.354675 933.175110,497.421661 C949.793457,497.568115 966.417603,498.126007 983.017334,498.955994 C995.465637,499.578430 1008.268127,497.696899 1020.132019,503.436615 C1020.974976,503.844391 1022.106995,503.797272 1023.093140,503.745117 C1037.550659,502.980316 1051.566406,506.055847 1065.540283,508.968964 C1081.114624,512.215820 1097.323975,514.247437 1111.841187,520.238647 C1127.424438,526.669983 1144.953979,527.449951 1159.196899,537.275696 C1159.972168,537.810486 1161.105713,537.806824 1162.053101,538.113953 C1169.622681,540.568115 1177.744629,541.998291 1184.646484,545.701111 C1203.295654,555.706543 1224.119751,561.186279 1241.230103,574.565857 C1251.607788,582.680725 1263.826660,588.430603 1275.165771,595.329712 C1284.231812,600.845825 1290.980835,600.381531 1298.531372,592.883057 C1321.702881,569.871338 1344.798706,546.782349 1367.768066,523.569275 C1370.905640,520.398376 1373.157959,516.351379 1376.376343,511.949219 C1371.356812,508.317566 1367.399414,505.473572 1363.462280,502.601532 C1355.423096,496.737030 1347.706055,490.359009 1339.286499,485.105652 C1327.801270,477.939453 1315.181519,472.474121 1304.192383,464.668640 C1295.924927,458.796143 1287.006348,454.719360 1278.155640,450.204559 C1271.049072,446.579315 1264.415894,441.932922 1257.119141,438.794250 C1244.966553,433.567047 1232.435913,429.222534 1220.092529,424.434479 C1208.043945,419.760834 1196.036377,414.981598 1183.993774,410.292297 C1182.449463,409.690918 1180.802612,409.352692 1179.203857,408.890381 C1171.225586,406.583313 1163.211548,404.391815 1155.279541,401.934998 C1147.353638,399.480103 1139.671021,395.987518 1131.599365,394.304840 C1110.233643,389.850739 1088.739624,385.992126 1067.245239,382.186951 C1059.091919,380.743591 1050.771118,380.268799 1042.579712,379.008362 C1038.677856,378.407959 1034.938477,376.295074 1031.059448,376.084442 C1015.130066,375.219482 999.175476,374.819397 983.229858,374.255463 C979.570862,374.126007 975.910339,374.038147 972.251343,373.908447 C961.056702,373.511780 949.860474,372.743378 938.668457,372.801758 C927.386414,372.860565 916.093140,373.515656 904.832886,374.308319 C889.938293,375.356842 875.054382,376.628052 860.197388,378.117920 C849.359497,379.204742 838.542419,380.602478 827.774780,382.246429 C821.953247,383.135193 816.285583,384.986664 810.493835,386.125977 C802.035156,387.789917 793.435364,388.818817 785.062439,390.816772 C773.177246,393.652863 761.422302,397.047943 749.650757,400.343567 C736.220154,404.103668 722.832825,408.018158 709.425903,411.862915 C703.704346,413.503693 697.729492,414.552399 692.303833,416.881439 C673.983887,424.745544 655.858521,433.062927 636.192444,441.700897 M712.896240,706.104126 C725.064758,718.812988 737.212097,731.542358 749.414795,744.218323 C753.109802,748.056641 756.829346,751.889221 760.769897,755.468689 C765.528748,759.791565 770.429016,761.457031 777.045654,758.142700 C786.522522,753.395447 796.267822,748.470276 806.474365,746.058899 C822.160461,742.352905 836.298767,734.138000 852.310852,731.635132 C859.178528,730.561707 865.960876,728.758606 872.668091,726.880432 C887.023804,722.860718 902.574158,725.807373 916.507874,719.186646 C918.455505,718.261169 921.110840,718.581909 923.419861,718.697693 C947.563599,719.907959 971.722839,720.909607 995.838928,722.542175 C1018.446167,724.072510 1040.084351,731.116882 1062.252197,735.196899 C1063.843140,735.489807 1065.348145,736.319641 1066.855957,736.983887 C1077.143799,741.515320 1087.411133,746.093628 1097.717285,750.583069 C1098.905640,751.100708 1100.353394,751.002686 1101.575073,751.468018 C1105.239014,752.863708 1109.139893,753.928162 1112.430298,755.960815 C1124.222046,763.245117 1126.540894,763.233887 1136.996094,754.358826 C1138.009644,753.498474 1138.937012,752.533936 1139.878906,751.592346 C1162.727905,728.748352 1185.602905,705.930420 1208.373535,683.008789 C1210.678101,680.688843 1212.469971,677.818909 1214.283691,675.062134 C1216.565430,671.593994 1215.500366,668.411987 1212.235352,666.501343 C1203.665283,661.486450 1194.948975,656.713379 1186.189575,652.033752 C1181.215088,649.376282 1175.985229,647.200928 1170.969482,644.616211 C1160.923340,639.439148 1151.287231,633.274475 1140.848145,629.103394 C1129.198364,624.448608 1116.836426,621.582336 1104.801147,617.883606 C1098.766968,616.029114 1092.887573,613.182983 1086.726685,612.350037 C1078.639771,611.256775 1071.326172,608.745422 1064.221924,604.971252 C1061.968872,603.774170 1058.975830,602.463623 1056.739136,602.987732 C1042.680542,606.282288 1030.003906,599.255798 1016.582520,598.073486 C1014.992737,597.933472 1013.151550,597.299805 1011.987244,596.264648 C1007.178589,591.989319 1001.948669,591.891541 996.105347,593.588196 C993.626526,594.307983 990.806702,594.067993 988.156616,593.945435 C978.209839,593.485352 968.269592,592.481445 958.325989,592.469666 C948.757202,592.458313 939.181152,593.960815 929.619202,593.850037 C906.581482,593.583008 884.033264,597.527710 861.296692,600.278564 C846.735413,602.040222 833.102478,606.946960 818.867310,609.653015 C808.261475,611.669006 797.956848,615.361389 787.604065,618.583496 C781.002625,620.638062 774.447937,622.933960 768.074280,625.603821 C761.657104,628.291870 755.564148,631.744324 749.196716,634.562683 C738.631653,639.238770 727.535950,642.902222 717.457520,648.437500 C708.024048,653.618530 696.763123,655.865967 689.476501,664.752625 C689.285889,664.985107 688.878784,665.031311 688.587341,665.191345 C680.654114,669.545227 679.987732,670.722107 685.872803,677.549622 C694.112610,687.109009 703.181763,695.953552 712.896240,706.104126 M1011.092712,891.633667 C1004.160706,888.562561 997.473450,884.598877 990.243042,882.615845 C977.256897,879.054260 964.420532,874.133484 950.400574,875.898865 C944.828430,876.600403 939.042236,875.528809 933.445740,876.126953 C923.252747,877.216492 912.570618,877.363647 903.077393,880.703369 C870.667664,892.105225 845.392517,913.060547 826.713867,941.900146 C825.287598,944.102234 823.896484,946.518921 823.289978,949.029297 C819.086609,966.427063 815.039001,983.863525 811.109131,1001.325256 C810.627136,1003.467041 810.948181,1005.857483 811.235657,1008.089111 C811.697998,1011.677856 812.493652,1015.222107 813.058289,1018.799438 C814.708557,1029.254150 814.812500,1039.934937 819.228394,1049.943237 C822.293945,1056.891113 824.072083,1064.396729 826.723755,1071.542358 C827.855286,1074.591675 829.256042,1077.797852 831.381226,1080.175903 C839.532410,1089.297241 847.672852,1098.483276 856.517334,1106.910400 C862.451294,1112.564331 868.969299,1118.241577 876.273254,1121.690308 C891.786194,1129.015015 907.855591,1135.242798 925.032471,1137.893677 C941.148743,1140.380615 957.179138,1142.651855 972.868225,1135.578003 C976.465637,1133.956055 980.430542,1132.421753 984.291016,1132.242676 C997.594971,1131.625366 1008.974182,1125.241089 1018.821960,1117.980713 C1043.885742,1099.501953 1062.945068,1076.157715 1071.378662,1045.098022 C1076.735840,1025.368164 1076.125122,1005.609436 1074.401245,985.730835 C1072.803223,967.302124 1063.842529,951.200195 1056.930298,934.492371 C1055.935669,932.088135 1054.391357,929.701233 1052.527222,927.900635 C1039.660400,915.471802 1028.383911,901.235779 1011.092712,891.633667 z"/>
  <path fill="#000103" opacity="1.000000" stroke="none" d=" M1795.500000,1.999999 C1795.452393,2.377969 1794.904785,2.755939 1794.178589,2.566955 C1794.000000,2.000000 1795.000000,2.000000 1795.500000,1.999999 z"/>
  <path fill="#000103" opacity="1.000000" stroke="none" d=" M1894.000000,129.499985 C1893.718262,129.250671 1893.436401,128.501358 1893.577393,127.876038 C1894.000000,128.000000 1894.000000,129.000000 1894.000000,129.499985 z"/>
  <path fill="#FEFEFF" opacity="1.000000" stroke="none" d=" M858.530090,2273.154297 C854.321106,2272.985352 851.050476,2272.817871 846.722717,2272.595947 C846.408569,2267.948242 845.883606,2263.778564 845.880920,2259.608398 C845.831055,2183.609619 845.630859,2107.610107 846.006470,2031.613281 C846.091125,2014.499268 842.708435,2010.460449 824.560791,2010.552979 C744.564331,2010.961060 664.564575,2010.729004 584.566040,2010.728760 C580.343201,2010.728760 576.120422,2010.728760 572.293030,2010.728760 C569.791260,2001.185059 569.697571,1840.802856 572.044373,1830.978149 C575.944702,1830.786011 580.164185,1830.398682 584.383728,1830.396729 C664.715637,1830.360596 745.047546,1830.370483 825.379456,1830.366699 C828.379150,1830.366577 831.395325,1830.518066 834.375183,1830.263428 C840.984985,1829.698608 845.997498,1825.271362 845.575439,1818.710205 C845.112427,1811.512573 843.586548,1804.231079 841.436951,1797.324341 C836.114319,1780.222778 830.010132,1763.365967 824.517578,1746.315063 C817.080139,1723.226074 809.939087,1700.041626 802.637634,1676.908691 C792.317932,1644.213135 781.802429,1611.578003 771.730042,1578.806519 C768.644226,1568.766602 762.865479,1562.223145 752.845947,1558.929199 C726.893921,1550.397949 701.376343,1540.773560 677.450745,1527.373657 C672.688232,1524.706299 667.962097,1524.898193 663.165039,1527.426758 C646.411804,1536.257202 629.639038,1545.050659 612.850342,1553.813599 C595.191406,1563.030518 577.501587,1572.188110 559.833252,1581.387085 C545.122009,1589.046509 530.453064,1596.787964 515.707214,1604.380005 C504.769958,1610.010986 493.670013,1615.328369 482.770569,1621.030029 C472.490875,1626.407471 462.422821,1632.188354 452.172668,1637.623901 C447.492737,1640.105591 442.772614,1642.840576 437.730530,1644.174316 C435.125580,1644.863281 431.063080,1643.574707 428.900146,1641.726807 C422.861176,1636.567749 417.563995,1630.551392 411.794525,1625.062256 C406.496796,1620.021851 400.746246,1615.445679 395.587006,1610.274048 C387.373016,1602.040039 379.632599,1593.333496 371.418488,1585.099365 C362.290863,1575.949585 352.787201,1567.176270 343.573212,1558.111084 C330.781860,1545.526245 318.151703,1532.777710 305.357117,1520.196411 C301.499603,1516.403198 300.757172,1512.637085 303.363831,1507.688721 C311.249512,1492.718384 318.920593,1477.632935 326.509735,1462.509277 C333.659149,1448.262085 340.386597,1433.800049 347.699768,1419.639038 C353.166565,1409.053345 359.353851,1398.842285 365.068359,1388.381470 C372.228638,1375.274048 379.427399,1362.181641 386.259216,1348.902588 C396.132507,1329.711792 405.624542,1310.325195 415.426208,1291.097046 C418.232819,1285.591187 418.246643,1280.621704 415.372131,1274.992676 C407.961792,1260.481323 400.695648,1245.874390 394.042145,1231.005859 C389.160034,1220.095825 385.571960,1208.613403 380.951294,1197.576904 C378.420929,1191.533325 375.411987,1185.572388 371.769714,1180.143799 C367.750885,1174.154053 361.518799,1171.625244 354.370544,1169.722168 C335.428497,1164.679321 316.785614,1158.509644 298.034821,1152.752197 C278.963806,1146.896484 259.903442,1141.006104 240.843536,1135.114136 C229.743073,1131.682617 218.650177,1128.226440 207.558228,1124.767456 C185.364365,1117.845947 163.225479,1110.741821 140.959396,1104.061279 C130.040268,1100.785278 129.736374,1101.145264 129.300171,1089.291260 C128.973022,1080.401245 129.444183,1071.483032 129.175522,1062.588989 C128.965271,1055.629028 127.726311,1048.688599 127.700096,1041.736572 C127.550560,1002.071167 127.617142,962.404907 127.634026,922.738953 C127.638863,911.373962 127.647423,911.289734 138.862686,907.614319 C157.819565,901.401855 176.814835,895.306458 195.794724,889.164246 C218.532379,881.805908 241.234238,874.334412 264.018494,867.123352 C291.269165,858.498779 318.523315,849.871826 345.914948,841.712524 C356.681091,838.505493 363.981476,832.992188 367.073364,821.610901 C370.730957,808.147522 374.934418,794.758057 380.016785,781.773071 C388.245819,760.748596 397.058502,739.933899 406.302277,719.334595 C409.909546,711.295959 409.885437,704.956421 405.516998,696.929321 C391.538818,671.244019 378.749908,644.914551 365.256439,618.961365 C355.295776,599.803223 344.930969,580.855469 334.791107,561.790161 C331.983795,556.511719 329.339264,551.146729 326.615784,545.823669 C319.210938,531.350647 311.808228,516.876587 304.395905,502.407410 C300.277649,494.368378 300.392365,492.916901 306.471008,486.657501 C312.043671,480.919098 317.709595,475.268372 323.433319,469.680298 C330.359375,462.918427 331.636261,462.947571 338.849243,470.047333 C346.213165,477.295807 353.478210,484.644714 360.784882,491.951324 C401.796539,532.962585 442.894470,573.888000 483.800812,615.004028 C567.005859,698.635498 650.110779,782.366638 733.246277,866.067200 C741.239441,874.114685 742.103333,876.684021 736.972229,884.015930 C726.927002,898.369690 720.368835,914.398193 714.560913,930.642517 C704.145691,959.773376 699.652710,990.033875 701.745422,1020.929016 C704.342773,1059.274414 714.599915,1095.481812 734.414551,1128.713379 C743.795776,1144.446899 754.181396,1159.334351 767.221375,1172.386230 C781.114807,1186.291992 794.980774,1200.229248 811.450195,1211.058838 C827.304504,1221.483887 843.813354,1230.875366 862.145203,1236.420288 C873.570312,1239.876221 884.953186,1243.651733 896.594727,1246.180420 C940.621765,1255.743530 983.603577,1251.747437 1026.088013,1236.785522 C1044.821289,1230.188110 1061.501953,1220.203491 1078.497070,1210.544189 C1082.503418,1208.266968 1086.246460,1205.277710 1089.538696,1202.035278 C1106.120605,1185.703857 1123.527100,1170.053345 1138.673462,1152.466553 C1152.493286,1136.420044 1162.591309,1117.589600 1170.550293,1097.694092 C1181.931152,1069.244263 1189.096313,1039.869629 1188.279907,1009.261230 C1187.608521,984.087952 1186.408691,958.640808 1176.905273,934.743347 C1171.510254,921.177246 1165.329102,907.919739 1159.356323,894.588562 C1150.286133,874.343445 1149.563354,880.016479 1164.152710,865.403992 C1272.723511,756.661438 1381.377075,648.001282 1490.115479,539.426270 C1511.561646,518.012268 1533.463745,497.054230 1555.207520,475.939301 C1561.260864,470.061005 1562.092896,469.980652 1568.149658,476.129700 C1580.461426,488.629059 1582.528198,485.749817 1572.974487,505.032623 C1558.229370,534.793152 1542.119629,563.874878 1526.801392,593.355042 C1515.002319,616.062622 1503.564453,638.957642 1491.892334,661.731567 C1488.258667,668.821411 1484.524780,675.867798 1480.580688,682.788208 C1476.834717,689.360779 1476.415771,695.460510 1479.969116,702.571350 C1488.293579,719.230286 1496.632080,735.959106 1503.534424,753.231262 C1511.417847,772.958252 1518.203857,793.161987 1524.593384,813.433838 C1528.626953,826.230835 1535.676636,834.528015 1548.913818,838.419739 C1579.519531,847.417725 1609.899048,857.185852 1640.369019,866.645691 C1668.654053,875.427185 1696.931274,884.233887 1725.226318,892.982910 C1731.887939,895.042786 1738.529663,897.268494 1745.324341,898.765442 C1751.065796,900.030273 1752.727295,903.264709 1752.671021,908.712402 C1752.527344,922.614502 1752.591431,936.523071 1752.860107,950.423401 C1752.988281,957.049805 1754.160645,963.661682 1754.191284,970.283264 C1754.339600,1002.282043 1754.226685,1034.281982 1754.296997,1066.281128 C1754.307983,1071.258789 1754.698975,1076.242065 1755.071045,1081.210938 C1755.640503,1088.815552 1754.167480,1091.684326 1747.105347,1093.963623 C1717.990234,1103.360962 1688.814819,1112.571533 1659.669067,1121.874146 C1636.561279,1129.249512 1613.460327,1136.646240 1590.364014,1144.056885 C1573.279541,1149.538574 1556.273193,1155.276001 1539.103027,1160.473755 C1529.718262,1163.314819 1523.584106,1169.451660 1520.034912,1178.024048 C1511.005249,1199.833740 1502.825806,1222.002197 1493.502808,1243.681519 C1487.471313,1257.706543 1480.199219,1271.214233 1473.120361,1284.764038 C1470.527100,1289.727905 1470.597290,1293.706909 1473.313477,1298.721436 C1484.371460,1319.135742 1494.988037,1339.789917 1505.692993,1360.394287 C1514.726685,1377.781860 1523.578247,1395.264282 1532.658325,1412.627563 C1540.658081,1427.924927 1548.963379,1443.062744 1556.948853,1458.367432 C1565.100342,1473.990112 1572.954224,1489.768188 1581.096924,1505.395630 C1583.443237,1509.898804 1582.950806,1513.654297 1579.454102,1517.171143 C1578.044312,1518.589233 1576.657715,1520.030518 1575.243774,1521.444336 C1536.825317,1559.863403 1498.409424,1598.284912 1459.972534,1636.685547 C1457.856567,1638.799683 1455.703979,1640.924561 1453.316162,1642.706299 C1450.762939,1644.611328 1448.152222,1644.764160 1444.999512,1643.092163 C1427.693237,1633.914185 1410.238525,1625.016846 1392.847656,1615.998047 C1377.825806,1608.207642 1362.864502,1600.299194 1347.798096,1592.596069 C1328.887207,1582.927368 1309.846680,1573.511841 1290.961548,1563.793823 C1281.521973,1558.936523 1272.384521,1553.493408 1262.964966,1548.595093 C1250.280884,1541.999146 1237.441162,1535.703247 1224.700195,1529.215942 C1219.624634,1526.631592 1215.091675,1528.611328 1210.471313,1530.544312 C1189.962280,1539.124390 1169.503052,1547.829712 1148.887817,1556.147217 C1141.519653,1559.119873 1133.626221,1560.779297 1126.217896,1563.667114 C1118.014038,1566.865234 1112.587036,1573.092529 1109.958374,1581.534912 C1102.348267,1605.975220 1094.857788,1630.452637 1087.232178,1654.888062 C1083.665771,1666.316162 1079.826660,1677.659058 1076.234863,1689.079468 C1070.953613,1705.871582 1065.848633,1722.719116 1060.549683,1739.505737 C1052.846191,1763.909668 1045.030518,1788.278442 1037.275269,1812.666260 C1033.071655,1825.885010 1036.352783,1830.330933 1050.645020,1830.348633 C1096.310913,1830.405273 1141.976685,1830.369873 1187.642578,1830.369873 C1223.308594,1830.369751 1258.974609,1830.369629 1294.640625,1830.369507 C1298.552246,1830.369385 1302.463745,1830.369507 1305.951904,1830.369507 C1308.687500,1838.831909 1309.239624,1997.748657 1306.754883,2009.925903 C1302.892700,2010.179565 1298.710815,2010.691162 1294.528809,2010.693726 C1214.530273,2010.741455 1134.531616,2010.728271 1054.533081,2010.733154 C1051.533569,2010.733398 1048.512573,2010.570068 1045.539185,2010.864136 C1039.415527,2011.469727 1035.183838,2015.663208 1034.541016,2021.784668 C1034.229004,2024.754395 1034.404175,2027.778198 1034.403931,2030.777466 C1034.398926,2106.776123 1034.399902,2182.774902 1034.399780,2258.773438 C1034.399780,2263.032227 1034.399780,2267.290771 1034.399780,2271.087646 C1032.251465,2272.029297 1031.350708,2272.768066 1030.447998,2272.770752 C973.454895,2272.937256 916.461731,2273.043457 858.530090,2273.154297 z"/>
  <path fill="#FCFDFF" opacity="1.000000" stroke="none" d=" M649.055420,181.091309 C657.469055,178.880219 664.957520,177.188370 672.108032,172.910019 C677.332458,169.784119 684.962891,170.961304 691.306335,169.367111 C706.093506,165.650879 720.751282,161.419998 735.461487,157.397369 C736.741821,157.047241 738.033325,156.353683 739.300110,156.396561 C754.810730,156.921570 769.221069,151.264938 783.982666,148.004898 C798.668030,144.761719 813.598511,144.955841 828.281738,142.559906 C829.263794,142.399658 830.358459,142.495377 831.218567,142.087631 C843.203064,136.406403 856.073486,139.235901 868.529236,138.137161 C878.774658,137.233368 889.007996,135.971924 899.274048,135.571869 C915.150269,134.953217 931.049255,134.891769 946.939758,134.681122 C953.267578,134.597244 959.748413,135.627823 965.893188,134.583344 C975.356201,132.974823 984.327576,135.001572 993.507019,136.071884 C998.696655,136.676987 1003.992798,136.301956 1009.228577,136.592346 C1019.833008,137.180496 1030.489136,137.428558 1041.014160,138.715225 C1056.457397,140.603134 1071.760620,144.815643 1087.202759,145.256516 C1110.028931,145.908157 1131.630737,152.311325 1153.547607,156.934021 C1164.905884,159.329697 1176.460938,160.547882 1187.641724,163.299622 C1202.671997,166.998779 1217.259521,172.472626 1232.105225,176.958893 C1237.496216,178.588013 1243.087646,179.550140 1248.578613,180.854691 C1250.187622,181.237000 1252.140137,181.303528 1253.297729,182.274704 C1261.952148,189.535965 1272.963867,189.588486 1283.096069,192.310547 C1284.056763,192.568634 1285.377075,192.385803 1285.971558,192.973236 C1293.289673,200.204514 1303.480347,200.115723 1312.259888,203.596588 C1320.854004,207.003983 1328.958984,211.623840 1337.412109,215.413956 C1347.101807,219.758530 1357.102417,223.433762 1366.666016,228.028412 C1376.790771,232.892715 1386.650146,238.335983 1396.455688,243.829437 C1403.897095,247.998337 1410.399780,254.094788 1419.796875,253.860870 C1421.150635,253.827164 1422.608154,255.444855 1423.915039,256.433807 C1439.823120,268.471588 1456.523315,279.191406 1474.448608,288.052490 C1479.427002,290.513550 1483.579590,294.608673 1488.226074,297.786011 C1496.976807,303.769928 1505.947998,309.439972 1514.572144,315.598175 C1523.217773,321.771759 1531.893555,327.986847 1539.913818,334.925995 C1546.272339,340.427368 1546.144653,345.173279 1540.247803,351.119537 C1515.845825,375.725769 1491.364014,400.254089 1466.740479,424.638336 C1459.196777,432.108765 1453.038208,431.520416 1444.845459,424.827667 C1435.861206,417.488373 1426.375244,410.746613 1416.929810,403.993561 C1408.007935,397.614868 1399.126099,391.107880 1389.738403,385.470367 C1376.463135,377.498413 1362.453125,370.737793 1349.275635,362.618225 C1330.619629,351.122986 1310.046509,343.685852 1290.744507,333.653290 C1282.071045,329.145203 1273.043945,326.248749 1264.039673,322.853363 C1247.675659,316.682739 1231.715820,309.440552 1215.584839,302.651123 C1214.058594,302.008698 1212.563599,301.213684 1210.972412,300.816589 C1201.988281,298.574402 1192.997437,296.352081 1183.969971,294.293396 C1180.106323,293.412323 1176.152710,292.918121 1172.232300,292.296997 C1170.268188,291.985809 1167.700806,292.489990 1166.409180,291.417480 C1158.561523,284.900970 1148.441284,285.260468 1139.475098,282.319427 C1119.530273,275.777191 1099.027100,271.456909 1077.895142,270.956177 C1077.229614,270.940430 1076.505737,271.050385 1075.908081,270.831390 C1058.375366,264.405579 1039.628540,267.162201 1021.866028,263.830139 C1004.015320,260.481506 986.019531,263.161163 968.344971,259.710999 C964.244385,258.910553 959.757263,260.029846 955.454468,260.352203 C953.473633,260.500641 951.510010,261.070770 949.535889,261.085175 C937.631653,261.172180 925.722412,261.364136 913.822815,261.125702 C890.474304,260.657867 867.400574,263.661560 844.323425,266.448059 C827.605835,268.466614 810.674316,269.950989 794.397461,273.950134 C783.355774,276.663055 772.159607,277.353088 761.269409,279.782684 C747.759949,282.796631 734.763855,288.057434 721.443665,292.002441 C716.730957,293.398193 711.516663,293.178070 706.877014,294.729401 C688.946716,300.724731 671.125732,307.053009 653.324463,313.425903 C642.462463,317.314484 631.534546,321.104614 620.961182,325.688538 C611.251709,329.897949 601.969482,335.095703 592.516113,339.891632 C589.272278,341.537354 586.256226,344.118378 582.833679,344.842316 C567.450317,348.096161 555.648987,358.188507 542.302063,365.313995 C537.952515,367.636139 533.338379,369.485840 529.093811,371.975464 C524.262695,374.809235 519.824158,378.310272 515.004517,381.166168 C509.915222,384.181885 504.576904,386.777283 499.349213,389.559784 C496.423828,391.116852 492.836090,392.059204 490.696045,394.351440 C482.106293,403.552094 470.908447,408.897125 460.671753,415.669861 C454.043793,420.055023 447.515442,424.590790 439.913483,429.758484 C436.942383,427.326385 433.461792,424.913574 430.495819,421.980377 C406.332184,398.083557 382.264130,374.090118 358.168549,350.124481 C352.448792,344.435577 352.401093,338.922791 358.692261,334.180267 C370.890930,324.984344 383.345612,316.127838 395.701385,307.140625 C396.778473,306.357147 397.995270,305.748016 399.001556,304.887604 C416.245209,290.144318 436.277008,279.900574 456.153687,269.402740 C457.614502,268.631226 459.341248,268.044678 460.398834,266.877716 C470.628662,255.590179 485.227661,251.699707 497.952209,244.696411 C512.684692,236.587982 528.564209,230.896027 543.265625,222.440948 C556.082031,215.070007 570.756042,210.934662 584.590881,205.324265 C587.339050,204.209824 590.327148,203.320816 592.645935,201.582672 C599.485107,196.456116 607.066040,193.210114 615.487732,192.508408 C627.420227,191.514206 637.282471,184.800323 649.055420,181.091309 z"/>
  <path fill="#FCFDFF" opacity="1.000000" stroke="none" d=" M636.925598,441.453979 C655.858521,433.062927 673.983887,424.745544 692.303833,416.881439 C697.729492,414.552399 703.704346,413.503693 709.425903,411.862915 C722.832825,408.018158 736.220154,404.103668 749.650757,400.343567 C761.422302,397.047943 773.177246,393.652863 785.062439,390.816772 C793.435364,388.818817 802.035156,387.789917 810.493835,386.125977 C816.285583,384.986664 821.953247,383.135193 827.774780,382.246429 C838.542419,380.602478 849.359497,379.204742 860.197388,378.117920 C875.054382,376.628052 889.938293,375.356842 904.832886,374.308319 C916.093140,373.515656 927.386414,372.860565 938.668457,372.801758 C949.860474,372.743378 961.056702,373.511780 972.251343,373.908447 C975.910339,374.038147 979.570862,374.126007 983.229858,374.255463 C999.175476,374.819397 1015.130066,375.219482 1031.059448,376.084442 C1034.938477,376.295074 1038.677856,378.407959 1042.579712,379.008362 C1050.771118,380.268799 1059.091919,380.743591 1067.245239,382.186951 C1088.739624,385.992126 1110.233643,389.850739 1131.599365,394.304840 C1139.671021,395.987518 1147.353638,399.480103 1155.279541,401.934998 C1163.211548,404.391815 1171.225586,406.583313 1179.203857,408.890381 C1180.802612,409.352692 1182.449463,409.690918 1183.993774,410.292297 C1196.036377,414.981598 1208.043945,419.760834 1220.092529,424.434479 C1232.435913,429.222534 1244.966553,433.567047 1257.119141,438.794250 C1264.415894,441.932922 1271.049072,446.579315 1278.155640,450.204559 C1287.006348,454.719360 1295.924927,458.796143 1304.192383,464.668640 C1315.181519,472.474121 1327.801270,477.939453 1339.286499,485.105652 C1347.706055,490.359009 1355.423096,496.737030 1363.462280,502.601532 C1367.399414,505.473572 1371.356812,508.317566 1376.376343,511.949219 C1373.157959,516.351379 1370.905640,520.398376 1367.768066,523.569275 C1344.798706,546.782349 1321.702881,569.871338 1298.531372,592.883057 C1290.980835,600.381531 1284.231812,600.845825 1275.165771,595.329712 C1263.826660,588.430603 1251.607788,582.680725 1241.230103,574.565857 C1224.119751,561.186279 1203.295654,555.706543 1184.646484,545.701111 C1177.744629,541.998291 1169.622681,540.568115 1162.053101,538.113953 C1161.105713,537.806824 1159.972168,537.810486 1159.196899,537.275696 C1144.953979,527.449951 1127.424438,526.669983 1111.841187,520.238647 C1097.323975,514.247437 1081.114624,512.215820 1065.540283,508.968964 C1051.566406,506.055847 1037.550659,502.980316 1023.093140,503.745117 C1022.106995,503.797272 1020.974976,503.844391 1020.132019,503.436615 C1008.268127,497.696899 995.465637,499.578430 983.017334,498.955994 C966.417603,498.126007 949.793457,497.568115 933.175110,497.421661 C925.574829,497.354675 917.965515,498.577942 910.355835,499.156433 C907.739868,499.355286 905.110474,499.441162 902.486755,499.451172 C900.501770,499.458740 898.305176,498.652374 896.562866,499.252869 C877.378601,505.865051 856.251282,501.597900 837.305237,510.170746 C832.096191,512.527771 825.600891,512.407410 819.659363,512.711121 C803.076477,513.558655 788.057129,520.329529 772.438782,524.782104 C760.310242,528.239685 748.211426,531.908569 736.360657,536.204407 C723.327515,540.928894 710.799377,546.964172 698.156311,552.605042 C685.057251,558.449280 673.326294,566.508118 660.304932,572.355286 C646.715637,578.457581 633.830383,586.291992 621.139343,594.177185 C611.288086,600.297913 605.987122,600.276123 597.812622,591.387085 C592.637817,585.760071 587.938843,579.678711 582.580688,574.240295 C565.751099,557.158325 548.709534,540.285217 531.753174,523.328064 C530.103943,521.678711 528.353760,520.110291 526.861389,518.327698 C521.602295,512.045837 521.600281,509.135864 528.211548,504.468475 C539.352356,496.603363 550.708191,489.011017 562.284851,481.803894 C574.383911,474.271484 586.498779,466.610229 599.271484,460.364746 C608.870605,455.671112 618.264893,451.049805 626.703491,444.393433 C629.089722,442.511230 632.987793,442.545563 636.925598,441.453979 z"/>
  <path fill="#FCFDFF" opacity="1.000000" stroke="none" d=" M712.396179,705.604004 C703.181763,695.953552 694.112610,687.109009 685.872803,677.549622 C679.987732,670.722107 680.654114,669.545227 688.587341,665.191345 C688.878784,665.031311 689.285889,664.985107 689.476501,664.752625 C696.763123,655.865967 708.024048,653.618530 717.457520,648.437500 C727.535950,642.902222 738.631653,639.238770 749.196716,634.562683 C755.564148,631.744324 761.657104,628.291870 768.074280,625.603821 C774.447937,622.933960 781.002625,620.638062 787.604065,618.583496 C797.956848,615.361389 808.261475,611.669006 818.867310,609.653015 C833.102478,606.946960 846.735413,602.040222 861.296692,600.278564 C884.033264,597.527710 906.581482,593.583008 929.619202,593.850037 C939.181152,593.960815 948.757202,592.458313 958.325989,592.469666 C968.269592,592.481445 978.209839,593.485352 988.156616,593.945435 C990.806702,594.067993 993.626526,594.307983 996.105347,593.588196 C1001.948669,591.891541 1007.178589,591.989319 1011.987244,596.264648 C1013.151550,597.299805 1014.992737,597.933472 1016.582520,598.073486 C1030.003906,599.255798 1042.680542,606.282288 1056.739136,602.987732 C1058.975830,602.463623 1061.968872,603.774170 1064.221924,604.971252 C1071.326172,608.745422 1078.639771,611.256775 1086.726685,612.350037 C1092.887573,613.182983 1098.766968,616.029114 1104.801147,617.883606 C1116.836426,621.582336 1129.198364,624.448608 1140.848145,629.103394 C1151.287231,633.274475 1160.923340,639.439148 1170.969482,644.616211 C1175.985229,647.200928 1181.215088,649.376282 1186.189575,652.033752 C1194.948975,656.713379 1203.665283,661.486450 1212.235352,666.501343 C1215.500366,668.411987 1216.565430,671.593994 1214.283691,675.062134 C1212.469971,677.818909 1210.678101,680.688843 1208.373535,683.008789 C1185.602905,705.930420 1162.727905,728.748352 1139.878906,751.592346 C1138.937012,752.533936 1138.009644,753.498474 1136.996094,754.358826 C1126.540894,763.233887 1124.222046,763.245117 1112.430298,755.960815 C1109.139893,753.928162 1105.239014,752.863708 1101.575073,751.468018 C1100.353394,751.002686 1098.905640,751.100708 1097.717285,750.583069 C1087.411133,746.093628 1077.143799,741.515320 1066.855957,736.983887 C1065.348145,736.319641 1063.843140,735.489807 1062.252197,735.196899 C1040.084351,731.116882 1018.446167,724.072510 995.838928,722.542175 C971.722839,720.909607 947.563599,719.907959 923.419861,718.697693 C921.110840,718.581909 918.455505,718.261169 916.507874,719.186646 C902.574158,725.807373 887.023804,722.860718 872.668091,726.880432 C865.960876,728.758606 859.178528,730.561707 852.310852,731.635132 C836.298767,734.138000 822.160461,742.352905 806.474365,746.058899 C796.267822,748.470276 786.522522,753.395447 777.045654,758.142700 C770.429016,761.457031 765.528748,759.791565 760.769897,755.468689 C756.829346,751.889221 753.109802,748.056641 749.414795,744.218323 C737.212097,731.542358 725.064758,718.812988 712.396179,705.604004 z"/>
  <path fill="#FDFDFF" opacity="1.000000" stroke="none" d=" M1011.771973,891.944092 C1028.383911,901.235779 1039.660400,915.471802 1052.527222,927.900635 C1054.391357,929.701233 1055.935669,932.088135 1056.930298,934.492371 C1063.842529,951.200195 1072.803223,967.302124 1074.401245,985.730835 C1076.125122,1005.609436 1076.735840,1025.368164 1071.378662,1045.098022 C1062.945068,1076.157715 1043.885742,1099.501953 1018.821960,1117.980713 C1008.974182,1125.241089 997.594971,1131.625366 984.291016,1132.242676 C980.430542,1132.421753 976.465637,1133.956055 972.868225,1135.578003 C957.179138,1142.651855 941.148743,1140.380615 925.032471,1137.893677 C907.855591,1135.242798 891.786194,1129.015015 876.273254,1121.690308 C868.969299,1118.241577 862.451294,1112.564331 856.517334,1106.910400 C847.672852,1098.483276 839.532410,1089.297241 831.381226,1080.175903 C829.256042,1077.797852 827.855286,1074.591675 826.723755,1071.542358 C824.072083,1064.396729 822.293945,1056.891113 819.228394,1049.943237 C814.812500,1039.934937 814.708557,1029.254150 813.058289,1018.799438 C812.493652,1015.222107 811.697998,1011.677856 811.235657,1008.089111 C810.948181,1005.857483 810.627136,1003.467041 811.109131,1001.325256 C815.039001,983.863525 819.086609,966.427063 823.289978,949.029297 C823.896484,946.518921 825.287598,944.102234 826.713867,941.900146 C845.392517,913.060547 870.667664,892.105225 903.077393,880.703369 C912.570618,877.363647 923.252747,877.216492 933.445740,876.126953 C939.042236,875.528809 944.828430,876.600403 950.400574,875.898865 C964.420532,874.133484 977.256897,879.054260 990.243042,882.615845 C997.473450,884.598877 1004.160706,888.562561 1011.771973,891.944092 z"/>
</svg>